<mxfile host="app.diagrams.net" agent="Mozilla/5.0 (Macintosh; Intel Mac OS X 10_15_7) AppleWebKit/537.36 (KHTML, like Gecko) Chrome/129.0.0.0 Safari/537.36" version="24.7.17">
  <diagram name="Page-1" id="6ZlH9_EwlkaryYHFHmXt">
    <mxGraphModel dx="2418" dy="773" grid="1" gridSize="10" guides="1" tooltips="1" connect="1" arrows="1" fold="1" page="1" pageScale="1" pageWidth="850" pageHeight="1100" math="0" shadow="0">
      <root>
        <mxCell id="0" />
        <mxCell id="1" parent="0" />
        <mxCell id="Yg8UiZUzxJEBoRSByH26-1" value="1. &lt;b&gt;System Definition&lt;/b&gt; (Mandatory)&lt;div&gt;2.&lt;strong&gt;Requirements Collection and Analysis&lt;/strong&gt; (Mandatory)&lt;br&gt;&lt;div&gt;&lt;strong&gt;3.Database Planning&lt;/strong&gt; (Mandatory)&lt;br&gt;&lt;/div&gt;&lt;/div&gt;&lt;div&gt;4.&lt;strong style=&quot;background-color: initial;&quot;&gt;Database Design&lt;/strong&gt;&lt;span style=&quot;background-color: initial;&quot;&gt; (Mandatory)&lt;/span&gt;&lt;/div&gt;&lt;div&gt;&lt;span style=&quot;background-color: initial;&quot;&gt;5.&lt;/span&gt;&lt;strong style=&quot;background-color: initial;&quot;&gt;DBMS Selection&lt;/strong&gt;&lt;span style=&quot;background-color: initial;&quot;&gt; (Optional)&lt;/span&gt;&lt;/div&gt;&lt;div&gt;&lt;span style=&quot;background-color: initial;&quot;&gt;6.&lt;/span&gt;&lt;strong style=&quot;background-color: initial;&quot;&gt;Application Design&lt;/strong&gt;&lt;span style=&quot;background-color: initial;&quot;&gt; (Mandatory)&lt;/span&gt;&lt;/div&gt;&lt;div&gt;&lt;span style=&quot;background-color: initial;&quot;&gt;7.&lt;/span&gt;&lt;strong style=&quot;background-color: initial;&quot;&gt;Prototyping&lt;/strong&gt;&lt;span style=&quot;background-color: initial;&quot;&gt; (Optional)&lt;/span&gt;&lt;/div&gt;&lt;div&gt;&lt;span style=&quot;background-color: initial;&quot;&gt;8.&lt;/span&gt;&lt;strong style=&quot;background-color: initial;&quot;&gt;Implementation&lt;/strong&gt;&lt;span style=&quot;background-color: initial;&quot;&gt; (Mandatory)&lt;/span&gt;&lt;/div&gt;&lt;div&gt;&lt;span style=&quot;background-color: initial;&quot;&gt;9.&lt;/span&gt;&lt;strong style=&quot;background-color: initial;&quot;&gt;Data Conversion and Loading&lt;/strong&gt;&lt;span style=&quot;background-color: initial;&quot;&gt; (Mandatory)&lt;/span&gt;&lt;/div&gt;&lt;div&gt;&lt;span style=&quot;background-color: initial;&quot;&gt;10.&lt;/span&gt;&lt;strong style=&quot;background-color: initial;&quot;&gt;Testing&lt;/strong&gt;&lt;span style=&quot;background-color: initial;&quot;&gt; (Mandatory)&lt;/span&gt;&lt;/div&gt;&lt;div&gt;&lt;span style=&quot;background-color: initial;&quot;&gt;11.&lt;/span&gt;&lt;strong style=&quot;background-color: initial;&quot;&gt;Operational Maintenance&lt;/strong&gt;&lt;span style=&quot;background-color: initial;&quot;&gt; (Mandatory)&lt;/span&gt;&lt;/div&gt;&lt;div&gt;&lt;span style=&quot;background-color: initial;&quot;&gt;&lt;br&gt;&lt;/span&gt;&lt;/div&gt;" style="text;html=1;align=center;verticalAlign=middle;resizable=0;points=[];autosize=1;strokeColor=none;fillColor=none;" parent="1" vertex="1">
          <mxGeometry x="440" y="10" width="320" height="190" as="geometry" />
        </mxCell>
        <mxCell id="CORaWqAfwDUjmtlUc-3Y-1" value="Manage Employee" style="whiteSpace=wrap;html=1;aspect=fixed;" vertex="1" parent="1">
          <mxGeometry x="-590" y="250" width="160" height="160" as="geometry" />
        </mxCell>
        <mxCell id="CORaWqAfwDUjmtlUc-3Y-3" value="Project Information" style="whiteSpace=wrap;html=1;aspect=fixed;" vertex="1" parent="1">
          <mxGeometry x="-150" y="250" width="190" height="190" as="geometry" />
        </mxCell>
        <mxCell id="CORaWqAfwDUjmtlUc-3Y-4" value="Employee" style="whiteSpace=wrap;html=1;aspect=fixed;" vertex="1" parent="1">
          <mxGeometry x="-350" y="610" width="180" height="180" as="geometry" />
        </mxCell>
        <mxCell id="CORaWqAfwDUjmtlUc-3Y-5" value="Department Manager" style="whiteSpace=wrap;html=1;aspect=fixed;" vertex="1" parent="1">
          <mxGeometry x="-350" y="850" width="180" height="180" as="geometry" />
        </mxCell>
        <mxCell id="CORaWqAfwDUjmtlUc-3Y-7" value="" style="rounded=0;whiteSpace=wrap;html=1;rotation=-90;" vertex="1" parent="1">
          <mxGeometry x="-472.85" y="984.66" width="1166.43" height="374.99" as="geometry" />
        </mxCell>
        <mxCell id="CORaWqAfwDUjmtlUc-3Y-8" value="Manage Department Information" style="whiteSpace=wrap;html=1;aspect=fixed;fillColor=#dae8fc;strokeColor=#6c8ebf;" vertex="1" parent="1">
          <mxGeometry x="55.370000000000005" y="600" width="110" height="110" as="geometry" />
        </mxCell>
        <mxCell id="CORaWqAfwDUjmtlUc-3Y-9" value="Manage Employee Info and view projects.&lt;span style=&quot;color: rgba(0, 0, 0, 0); font-family: monospace; font-size: 0px; text-align: start; text-wrap: nowrap;&quot;&gt;%3CmxGraphModel%3E%3Croot%3E%3CmxCell%20id%3D%220%22%2F%3E%3CmxCell%20id%3D%221%22%20parent%3D%220%22%2F%3E%3CmxCell%20id%3D%222%22%20value%3D%22Manage%20Department%20Information%22%20style%3D%22whiteSpace%3Dwrap%3Bhtml%3D1%3Baspect%3Dfixed%3BfillColor%3D%23dae8fc%3BstrokeColor%3D%236c8ebf%3B%22%20vertex%3D%221%22%20parent%3D%221%22%3E%3CmxGeometry%20x%3D%2255.370000000000005%22%20y%3D%22600%22%20width%3D%22110%22%20height%3D%22110%22%20as%3D%22geometry%22%2F%3E%3C%2FmxCell%3E%3C%2Froot%3E%3C%2FmxGraphModel%3E&lt;/span&gt;" style="whiteSpace=wrap;html=1;aspect=fixed;fillColor=#dae8fc;strokeColor=#6c8ebf;" vertex="1" parent="1">
          <mxGeometry x="55.370000000000005" y="720" width="110" height="110" as="geometry" />
        </mxCell>
        <mxCell id="CORaWqAfwDUjmtlUc-3Y-10" value="Assign employees to projects&lt;span style=&quot;color: rgba(0, 0, 0, 0); font-family: monospace; font-size: 0px; text-align: start; text-wrap: nowrap;&quot;&gt;%3CmxGraphModel%3E%3Croot%3E%3CmxCell%20id%3D%220%22%2F%3E%3CmxCell%20id%3D%221%22%20parent%3D%220%22%2F%3E%3CmxCell%20id%3D%222%22%20value%3D%22Manage%20Employee%20Info%20and%20view%20projects.%26lt%3Bspan%20style%3D%26quot%3Bcolor%3A%20rgba(0%2C%200%2C%200%2C%200)%3B%20font-family%3A%20monospace%3B%20font-size%3A%200px%3B%20text-align%3A%20start%3B%20text-wrap%3A%20nowrap%3B%26quot%3B%26gt%3B%253CmxGraphModel%253E%253Croot%253E%253CmxCell%2520id%253D%25220%2522%252F%253E%253CmxCell%2520id%253D%25221%2522%2520parent%253D%25220%2522%252F%253E%253CmxCell%2520id%253D%25222%2522%2520value%253D%2522Manage%2520Department%2520Information%2522%2520style%253D%2522whiteSpace%253Dwrap%253Bhtml%253D1%253Baspect%253Dfixed%253BfillColor%253D%2523dae8fc%253BstrokeColor%253D%25236c8ebf%253B%2522%2520vertex%253D%25221%2522%2520parent%253D%25221%2522%253E%253CmxGeometry%2520x%253D%252255.370000000000005%2522%2520y%253D%2522600%2522%2520width%253D%2522110%2522%2520height%253D%2522110%2522%2520as%253D%2522geometry%2522%252F%253E%253C%252FmxCell%253E%253C%252Froot%253E%253C%252FmxGraphModel%253E%26lt%3B%2Fspan%26gt%3B%22%20style%3D%22whiteSpace%3Dwrap%3Bhtml%3D1%3Baspect%3Dfixed%3BfillColor%3D%23dae8fc%3BstrokeColor%3D%236c8ebf%3B%22%20vertex%3D%221%22%20parent%3D%221%22%3E%3CmxGeometry%20x%3D%2255.370000000000005%22%20y%3D%22720%22%20width%3D%22110%22%20height%3D%22110%22%20as%3D%22geometry%22%2F%3E%3C%2FmxCell%3E%3C%2Froot%3E%3C%2FmxGraphModel%3E&lt;/span&gt;." style="whiteSpace=wrap;html=1;aspect=fixed;fillColor=#dae8fc;strokeColor=#6c8ebf;" vertex="1" parent="1">
          <mxGeometry x="55.370000000000005" y="840" width="110" height="110" as="geometry" />
        </mxCell>
        <mxCell id="CORaWqAfwDUjmtlUc-3Y-11" value="Create and update projects." style="whiteSpace=wrap;html=1;aspect=fixed;fillColor=#dae8fc;strokeColor=#6c8ebf;" vertex="1" parent="1">
          <mxGeometry x="55.370000000000005" y="960" width="110" height="110" as="geometry" />
        </mxCell>
        <mxCell id="CORaWqAfwDUjmtlUc-3Y-12" value="Track employee info" style="whiteSpace=wrap;html=1;aspect=fixed;fillColor=#dae8fc;strokeColor=#6c8ebf;" vertex="1" parent="1">
          <mxGeometry x="55.370000000000005" y="1080" width="110" height="110" as="geometry" />
        </mxCell>
        <mxCell id="CORaWqAfwDUjmtlUc-3Y-13" value="Manage Dependents" style="whiteSpace=wrap;html=1;aspect=fixed;fillColor=#dae8fc;strokeColor=#6c8ebf;" vertex="1" parent="1">
          <mxGeometry x="55.370000000000005" y="1200" width="110" height="110" as="geometry" />
        </mxCell>
        <mxCell id="CORaWqAfwDUjmtlUc-3Y-14" value="System tracks and stores employee info." style="whiteSpace=wrap;html=1;aspect=fixed;fillColor=#dae8fc;strokeColor=#6c8ebf;" vertex="1" parent="1">
          <mxGeometry x="440" y="872.5" width="135" height="135" as="geometry" />
        </mxCell>
        <mxCell id="CORaWqAfwDUjmtlUc-3Y-15" value="" style="endArrow=none;html=1;rounded=0;exitX=1;exitY=0.5;exitDx=0;exitDy=0;entryX=0;entryY=0.5;entryDx=0;entryDy=0;" edge="1" parent="1" source="CORaWqAfwDUjmtlUc-3Y-5" target="CORaWqAfwDUjmtlUc-3Y-13">
          <mxGeometry width="50" height="50" relative="1" as="geometry">
            <mxPoint x="-80" y="970" as="sourcePoint" />
            <mxPoint x="-30" y="920" as="targetPoint" />
          </mxGeometry>
        </mxCell>
        <mxCell id="CORaWqAfwDUjmtlUc-3Y-16" value="" style="endArrow=none;html=1;rounded=0;exitX=1;exitY=0.25;exitDx=0;exitDy=0;entryX=0;entryY=0.25;entryDx=0;entryDy=0;" edge="1" parent="1" source="CORaWqAfwDUjmtlUc-3Y-5" target="CORaWqAfwDUjmtlUc-3Y-12">
          <mxGeometry width="50" height="50" relative="1" as="geometry">
            <mxPoint x="-180" y="910" as="sourcePoint" />
            <mxPoint x="45" y="1225" as="targetPoint" />
          </mxGeometry>
        </mxCell>
        <mxCell id="CORaWqAfwDUjmtlUc-3Y-17" value="" style="endArrow=none;html=1;rounded=0;exitX=1;exitY=0.25;exitDx=0;exitDy=0;" edge="1" parent="1" target="CORaWqAfwDUjmtlUc-3Y-11">
          <mxGeometry width="50" height="50" relative="1" as="geometry">
            <mxPoint x="-170" y="850" as="sourcePoint" />
            <mxPoint x="55" y="1063" as="targetPoint" />
          </mxGeometry>
        </mxCell>
        <mxCell id="CORaWqAfwDUjmtlUc-3Y-18" value="" style="endArrow=none;html=1;rounded=0;exitX=1;exitY=0.25;exitDx=0;exitDy=0;entryX=-0.006;entryY=0.387;entryDx=0;entryDy=0;entryPerimeter=0;" edge="1" parent="1" target="CORaWqAfwDUjmtlUc-3Y-10">
          <mxGeometry width="50" height="50" relative="1" as="geometry">
            <mxPoint x="-167.5" y="870" as="sourcePoint" />
            <mxPoint x="57.5" y="1003" as="targetPoint" />
          </mxGeometry>
        </mxCell>
        <mxCell id="CORaWqAfwDUjmtlUc-3Y-19" value="" style="endArrow=none;html=1;rounded=0;exitX=1;exitY=0.25;exitDx=0;exitDy=0;entryX=0;entryY=0.5;entryDx=0;entryDy=0;" edge="1" parent="1" target="CORaWqAfwDUjmtlUc-3Y-9">
          <mxGeometry width="50" height="50" relative="1" as="geometry">
            <mxPoint x="-170" y="720" as="sourcePoint" />
            <mxPoint x="52.5" y="733" as="targetPoint" />
          </mxGeometry>
        </mxCell>
        <mxCell id="CORaWqAfwDUjmtlUc-3Y-20" value="" style="endArrow=none;html=1;rounded=0;" edge="1" parent="1" target="CORaWqAfwDUjmtlUc-3Y-8">
          <mxGeometry width="50" height="50" relative="1" as="geometry">
            <mxPoint x="-170" y="850" as="sourcePoint" />
            <mxPoint x="-120" y="800" as="targetPoint" />
          </mxGeometry>
        </mxCell>
        <mxCell id="CORaWqAfwDUjmtlUc-3Y-21" value="" style="endArrow=none;html=1;rounded=0;exitX=1;exitY=0.5;exitDx=0;exitDy=0;" edge="1" parent="1" source="CORaWqAfwDUjmtlUc-3Y-9">
          <mxGeometry width="50" height="50" relative="1" as="geometry">
            <mxPoint x="390" y="984.66" as="sourcePoint" />
            <mxPoint x="440" y="934.66" as="targetPoint" />
            <Array as="points">
              <mxPoint x="420" y="954.66" />
            </Array>
          </mxGeometry>
        </mxCell>
      </root>
    </mxGraphModel>
  </diagram>
</mxfile>
